<svg xmlns="http://www.w3.org/2000/svg" width="79" height="66" fill="none" style=""><rect id="backgroundrect" width="100%" height="100%" x="0" y="0" fill="none" stroke="none" class="" style=""/><g class="currentLayer" style=""><title>Layer 1</title><path d="M47.028155940808816,47.322910793044464 L47.25347038366657,45.67401489856118 C47.25347038366657,45.67401489856118 46.85939275139561,43.43390662873809 42.84158204407251,43.544036562174696 C39.49726559529158,43.63628401137011 38.19725469425757,45.582203607518004 38.19725469425757,45.582203607518004 C38.19725469425757,45.582203607518004 38.43147484631919,46.808244173419986 38.475780749608425,47.34515485880788 L47.028155940808816,47.322910793044464 z" fill="#ffffff" id="svg_7" class="" fill-opacity="1"/><path d="M6.325792031019285,42.140261549241366 C18.14515985083806,40.62810123548036 40.28920578624517,45.294775385202314 40.28920578624517,45.294775385202314 L38.98229296057817,46.31276851249341 C38.98229296057817,46.31276851249341 12.864074292946887,41.037435661342684 -9.304132964071954e-9,44.09599470381432 " fill="#ffffff" id="svg_8" class="" fill-opacity="1"/><path d="M0.000022254968874424463,44.09599470381432 C-0.012757437738669108,44.098393573651535 18.71668373899602,34.784018153829386 18.71668373899602,34.784018153829386 C18.71668373899602,34.784018153829386 6.294176763345568,42.14396889353527 6.325792031019285,42.140261549241366 " fill="#ffffff" id="svg_9" class="" fill-opacity="1"/><path d="M10.810640393266013,28.12104814137765 C24.270506641255515,28.20500858568078 40.280077434311195,45.3562736846659 40.280077434311195,45.3562736846659 L38.753193591308765,45.75819342194043 C38.753193591308765,45.75819342194043 21.50194429250439,27.868512571239876 6.4662128008912045,29.297148598849986 " fill="#ffffff" id="svg_10" class="" fill-opacity="1"/><path d="M6.46630185798324,29.297366677926078 C6.423042375525474,29.301946338524445 21.25859578850881,22.727734510050304 21.25859578850881,22.727734510050304 C21.25859578850881,22.727734510050304 10.720024802116699,28.120830062301522 10.810863035996109,28.12148429952986 " fill="#ffffff" id="svg_11" class="" fill-opacity="1"/><path d="M47.868186961463266,35.733752530297394 C47.868186961463266,35.733752530297394 39.553816848736126,13.77449804026972 36.26182144152791,13.918648309579783 C31.413553350944497,14.131929646017376 17.350547947123324,20.471488388594942 17.350547947123324,20.471488388594942 C17.350547947123324,20.471488388594942 23.812530545446833,19.773199186884124 29.93654147948371,27.411854985861225 C36.1703152794582,35.18528365387559 40.516969299133976,45.27383979389554 40.516969299133976,45.27383979389554 L41.64554529799359,44.67739352072907 C41.64554529799359,44.67739352072907 39.67582506482905,36.74803831329459 32.64521293383885,27.82751370493081 C28.854497811214273,23.01777968127934 27.422237128502896,21.978196725453163 22.90169913662167,19.61552801485512 C22.90169913662167,19.61552801485512 32.520755647714864,15.341614281210965 36.26182144152791,15.430808623340798 C38.92128885253171,15.494269634489413 47.868186961463266,35.733752530297394 47.868186961463266,35.733752530297394 z" fill="#ffffff" id="svg_12" class="" fill-opacity="1"/><path d="M46.238887462616404,46.854695016631865 C46.238887462616404,46.854695016631865 49.066672777573224,43.33664336079214 78.3337275769606,45.32138103248798 C78.35020313898775,45.32268950694465 72.91950166647169,36.363564902109026 72.91950166647169,36.363564902109026 L65.08203228161142,35.9016734189037 L72.36512126853114,37.035030377458064 L75.29843923755377,42.9273089349298 C53.24077868142414,41.48776895351409 49.57318498854297,43.30436765752754 45.65912579344488,44.680228548718524 " fill="#ffffff" id="svg_13" class="" fill-opacity="1"/><path d="M53.36479068208794,31.9721065464405 C53.36479068208794,31.9721065464405 53.939654211197336,32.10622517824941 54.609363543327895,32.070678288843155 C55.3411901971554,32.03098789699076 56.18033064688945,31.81988735131428 56.359112759157014,31.746176623588397 C56.70131463531548,31.604861382267785 55.327831633349604,32.57749406172756 54.347090407274116,32.43748729486362 C53.72903418852597,32.3498195062666 53.36479068208794,31.9721065464405 53.36479068208794,31.9721065464405 z" fill="white" id="svg_14" class=""/><path d="M42.03695121750341,41.04877577330051 C42.03695121750341,41.04877577330051 44.539678146519215,41.3324966513223 45.74417531634179,40.681966767280024 C46.28363865136582,40.390613121594306 44.93241992240962,41.66310453070818 44.15094393977059,41.68600283369995 C43.36924531440142,41.70911921576783 42.03695121750341,41.04877577330051 42.03695121750341,41.04877577330051 z" fill="white" id="svg_15" class=""/><path d="M64.4737723429875,38.522329676542306 C64.4737723429875,40.12172162074815 61.43959721723117,41.41798364915823 57.69496913973657,41.41798364915823 C53.95145427589246,41.41798364915823 50.91638857921571,40.12172162074815 50.91638857921571,38.522329676542306 C50.91638857921571,36.923591969564804 53.95145427589246,35.6268937830025 57.69496913973657,35.6268937830025 C61.43959721723117,35.6268937830025 64.4737723429875,36.923591969564804 64.4737723429875,38.522329676542306 z" fill="#DF2027" id="svg_16" class=""/><path d="M61.207158207010316,38.70071836080197 H54.03004715961657 C54.03004715961657,38.70071836080197 59.24411725574866,31.623180024661202 54.03004715961657,16.393845823451656 C54.00288474654477,16.31577351420354 61.21895827170544,16.358735092197612 61.207158207010316,16.393845823451656 C56.3996337360346,31.623180024661202 61.207158207010316,38.70071836080197 61.207158207010316,38.70071836080197 z" fill="#DF2027" id="svg_17" class=""/><path d="M39.40598207595198,10.043165047992382 C39.40598207595198,10.043165047992382 41.56628448607921,15.002283238780606 46.46286604909359,17.478353068956924 C50.232430112358976,19.38501843140466 53.60635804424275,19.885509911081844 57.676489793138586,19.957257927122708 C63.089602489977025,20.05255848338367 68.67882558632189,17.55228187575892 71.30690037238205,15.667424420922384 C74.49648012374584,13.379556833430774 75.84992528000302,10.138247525177235 75.84992528000302,10.138247525177235 L39.40598207595198,10.043165047992382 z" fill="#DF2027" id="svg_18" class=""/><path d="M75.84636299632149,10.102264477618746 C75.84636299632149,12.103358080023007 67.68940129377262,13.724994089992279 57.626617821596916,13.724994089992279 C47.56383434942123,13.724994089992279 39.40598207595198,12.103358080023007 39.40598207595198,10.102264477618746 C39.40598207595198,8.102261270595058 47.56383434942123,6.4799710233974475 57.626617821596916,6.4799710233974475 C67.68940129377262,6.4799710233974475 75.84636299632149,8.102261270595058 75.84636299632149,10.102264477618746 z" fill="#DF2027" id="svg_19" class=""/><path d="M74.84358013996643,10.102046398542633 C74.84358013996643,11.853003300646357 67.1227755456768,13.27204384890753 57.59834219487465,13.27204384890753 C48.07457677226281,13.27204384890753 40.353994820703264,11.853003300646357 40.353994820703264,10.102046398542633 C40.353994820703264,8.352179891819473 48.07457677226281,6.932485106329972 57.59834219487465,6.932485106329972 C67.1227755456768,6.932485106329972 74.84358013996643,8.352179891819473 74.84358013996643,10.102046398542633 z" fill="#dadada" id="svg_20" class="" fill-opacity="1"/><path d="M57.89779666685455,14.282404208534707 C49.16797521976718,14.282404208534707 42.40119472394144,12.652481193673175 40.20170719331721,11.461333279949098 C41.55492970684431,13.820294646253249 48.242449390755645,15.13182220999117 57.55381364885532,15.13182220999117 C65.98462590942302,15.13182220999117 73.03282681609085,13.97905621366283 74.8573839892324,11.914283521033848 C72.21105249930432,12.930313936639926 65.67248080182759,14.282404208534707 57.89779666685455,14.282404208534707 z" fill="#dadada" id="svg_21" class="" fill-opacity="1"/><path d="M57.81141128757709,40.33674758979464 C54.387834026881784,40.33674758979464 51.61236975349766,39.15061549482115 51.61236975349766,37.68839528948978 C51.61236975349766,37.6633161957369 51.61504146625884,37.63692862752734 51.6170452508297,37.6107591383939 C51.481678470930966,37.828402056353745 51.407761084538905,38.058039323499735 51.407761084538905,38.29334664662465 C51.407761084538905,39.75600301010822 54.18300271519292,40.941480867853386 57.60657997588822,40.941480867853386 C60.96937577126717,40.941480867853386 63.7052096386941,39.79743803456951 63.80116865536573,38.371637034948876 C63.09561384368962,39.502813202742125 60.68261193490275,40.33674758979464 57.81141128757709,40.33674758979464 z" fill="#dadada" id="svg_22" class="" fill-opacity="1"/><path d="M46.38538637901998,14.96499171676544 C46.38538637901998,14.96499171676544 51.60546782886467,15.60810691221991 52.982513114512095,15.60810691221991 C53.48991589640223,15.60810691221991 52.93798456849278,18.601678390010143 56.60735940321472,19.325700922702183 C56.97026705327216,19.397448938743043 50.88054309967016,19.468106559403356 46.38538637901998,14.96499171676544 z" fill="#dadada" id="svg_23" class="" fill-opacity="1"/><path d="M43.189127345753285,44.59648618349149 L47.87442095790597,35.607484745228525 C47.87442095790597,35.607484745228525 44.381601808150634,45.7721504828116 44.55236878213473,44.764407072097775 C44.97538996931824,42.259114645722434 44.64832779880634,45.26424431454662 43.189127345753285,44.59648618349149 z" fill="#ffffff" id="svg_24" class="" fill-opacity="1"/><path d="M57.64643302457553,37.85740657347663 C56.17810421958849,37.85740657347663 54.98741089903192,37.34884616798332 54.98741089903192,36.72165074508503 C54.98741089903192,36.71074679127942 54.9885241126824,36.6994066793216 54.989414683602796,36.68806656736378 C54.93108228831747,36.78140441193973 54.89968966337385,36.87997615434237 54.89968966337385,36.98116484565839 C54.89968966337385,37.608360268556666 56.08971505574014,38.11648451589776 57.558711788917456,38.11648451589776 C59.001214037213295,38.11648451589776 60.17431858209222,37.62602467372176 60.21573012989019,37.01474902337963 C59.91315865968893,37.500193046805094 58.87786996473977,37.85740657347663 57.64643302457553,37.85740657347663 z" fill="#dadada" id="svg_25" class="" fill-opacity="1"/><path d="M64.30768086633546,38.31973421483419 C64.30768086633546,38.31973421483419 63.51373689081103,36.0538926140299 62.13246139329178,34.79274131687387 C60.827774994925726,33.60093916592146 55.93408778740262,31.372389087132333 53.48056490173818,30.359847936744053 C51.402195016286484,29.50192485131921 48.150720585955845,28.884979144998184 48.21261526492269,26.022691271027412 C48.26092873735366,23.782583001204337 50.96203033888551,22.86425201169645 54.314807211410105,22.591435087480267 C57.66758408393469,22.319272400492416 63.95946763646441,22.684991011132333 67.87464004521297,21.711704094444222 C71.79003509669164,20.739071414984434 74.85538020466154,18.68149533186716 76.1907912997809,16.040339641074016 C78.03427310498071,12.390350144186478 76.24645198230505,7.576036459936654 72.40875924363007,4.865531622939873 C69.89200582261819,3.0873148363221397 64.41031916490999,1.8645454565618245 60.68238929217265,3.1773814947564203 C56.95579527581588,4.490653691103248 56.04362801061015,5.745262615975916 55.01501859756388,6.609291915531896 C53.98640918451763,7.474193531392322 51.93386585575714,8.835225045407675 51.193356135455886,9.135738012290098 C50.45373698607501,9.436469058248633 48.67259514530225,9.984065618366017 48.774120230226316,8.035310994228649 C48.876535886070734,6.086338291015181 50.12155403277089,2.9848176705494787 51.633298170126736,2.2056211316010885 C53.14504230748261,1.4253341972721358 54.89523680877192,1.0563444004905294 58.098397766671596,0.5732992469023199 C61.30267193822178,0.09014505377605397 68.5530324438173,-1.1350668116367184 73.73326084497472,2.7143996161705175 C78.27138761253354,6.086774449167407 79.9801705660249,11.627291456870378 78.66301617477347,15.822042485885838 C77.34519385533173,20.017011593977408 72.49425405198718,22.77200456250106 68.56082493937069,23.495809016116983 C63.206044637817534,24.482180677371822 56.821764352297734,24.192353585218896 54.44772492127776,24.354604417846275 C50.66101736779492,24.61215580673461 48.43926556416103,26.03839296450748 52.07880627305003,28.024657189736118 C54.35087533368576,29.26356442112872 61.45585013652823,31.93263423366421 63.11542904666823,34.27763853909718 C64.48690826406323,36.21592536758117 64.30768086633546,38.31973421483419 64.30768086633546,38.31973421483419 z" fill="#ffffff" id="svg_26" class="" fill-opacity="1"/><path d="M49.55114335826342,9.530461140052928 L52.37848338776004,7.0997517577079154 L50.05810085469336,9.530461140052928 H49.55114335826342 z" fill="#000000" id="svg_27" class="" fill-opacity="1"/><path d="M52.44037806672689,4.735556493577093 C52.37380789042802,4.653122602806722 52.09951204694901,4.759327112873297 51.82855584442146,4.9732626865392255 C51.55693171370361,5.186325943900709 51.39128552251175,5.426212927623977 51.45696512789024,5.508864897470446 C51.52442587510951,5.590862630088582 51.79827643312832,5.48422196186978 52.06900999292578,5.270940625432189 C52.34063412364362,5.057441209918485 52.50628031483548,4.817990384347445 52.44037806672689,4.735556493577093 z" fill="#000000" id="svg_28" class="" fill-opacity="1"/><path d="M50.14493151943101,9.02953350222353 L49.690072421843674,9.423166234605795 C49.690072421843674,9.423166234605795 49.346534689304626,10.044473522449053 49.11565417819448,10.336699484439215 C48.608028753574246,10.980686996198123 49.188235708205966,11.123964949203744 49.188235708205966,11.123964949203744 C49.188235708205966,11.123964949203744 48.965370335379276,10.837190964116388 49.61815882002249,10.336699484439215 C50.270724661935596,9.836426083838152 50.19302234913188,9.218608061212677 50.14493151943101,9.02953350222353 z" fill="#DF2027" id="svg_29" class=""/><path d="M59.1174335423237,27.899479800047786 C59.22986812102248,24.792725281755384 59.80673543470276,21.006000204145593 61.22964512275008,16.499178017213787 C61.24055461652482,16.464503444111966 54.024926376824354,16.420887628889552 54.051866147166024,16.499178017213787 C55.59433498127522,21.002729018003915 56.2237459792583,24.793815677135978 56.34597683808133,27.899479800047786 H59.1174335423237 z" fill="#DF2027" id="svg_30" class=""/><g class="" id="svg_1" fill="#ffffff" fill-opacity="1"><path d="M22.070925697536573,65.72450296145581 C20.932776061282794,65.72450296145581 20.042205140896428,65.65842500139384 18.923870707621244,65.65842500139384 C17.843385538462478,65.65842500139384 16.9140747830393,65.72450296145581 15.871216235266868,65.72450296145581 C15.833589613880537,65.62484082367259 15.890363510055163,65.19457080650349 15.966062038288015,65.14463069807381 C16.47791767478008,65.07855273801191 16.781157073171638,65.0462770347473 17.141615653198016,64.97910867930479 C17.729169817922934,64.86330868988928 17.881012159848808,64.51699911702332 18.013707226986373,64.00342289277943 C18.184474200970456,63.30753256090584 18.37349787882247,62.23196655752116 18.63888801309761,60.856977982634646 C18.88535351531453,59.53345606971054 19.113117028203344,58.3248618298975 19.150743649589675,57.87845396109614 C19.189260841896377,57.59669579475934 19.075267764086934,57.33216587543542 18.791175640483676,57.28244384608188 C18.563412127594866,57.248859668360616 18.146624936854042,57.19913763900706 17.710467828594822,57.16686193574247 C17.63410137217168,57.08290149143934 17.78616635682766,56.63692978079018 17.86186488506049,56.60312752399281 C19.37850716247849,56.503247307133485 20.81967355439373,56.157155813343635 21.84316218464777,55.79187336085594 C21.918860712880605,55.75959765759136 22.127922236441304,55.85860555814624 22.127922236441304,55.924901597284304 C21.957377905187318,56.55318741556313 21.805090277801245,57.14876137242518 21.55907006104452,58.50673977937497 C21.331306548155702,59.83135208767962 20.81967355439373,62.56213827875483 20.649129223139735,63.91968052755239 C20.573430694906893,64.5329188895795 20.611057316293223,64.89711094668664 21.04743706728254,64.99655500539373 C21.539477500796018,65.07855273801191 21.805090277801245,65.11235499480922 22.222768039462462,65.14463069807381 C22.241470028790577,65.19457080650349 22.165771500557724,65.65842500139384 22.070925697536573,65.72450296145581 z" fill="#ffffff" id="svg_78" class="" fill-opacity="1"/><path d="M27.818447774980115,59.069601874820194 C27.818447774980115,60.675100033157165 28.61439553507543,61.3046943258927 29.676401357636188,61.3046943258927 C29.922644217123022,61.3046943258927 30.283102797149404,61.22247851419846 30.529123013906137,61.106242366630724 C30.624191459657375,61.05652033727716 30.75688652679495,60.907136170140404 30.79473579091136,60.791118101648806 C31.07882791451462,60.14538595728099 31.173673717535763,59.417001843066714 31.173673717535763,58.83778381691309 C31.173673717535763,57.314501470270336 30.699889987890217,56.45461567316049 29.600480186673252,56.45461567316049 C28.652022156461754,56.45461567316049 27.818447774980115,57.678475448301356 27.818447774980115,59.069601874820194 zM25.20195041088496,65.92230068348944 C27.96962218871569,64.83081490754856 29.486487108863777,63.389530293523976 30.434499853615094,61.86842873764236 C30.472126475001403,61.80104230312372 30.415797864286965,61.76876659985915 30.35880132538223,61.784468293339216 C29.353792041726216,62.247668251001244 28.519327089324193,62.463566536352175 27.988992106234107,62.463566536352175 C26.30180549756212,62.463566536352175 25.334645478022537,61.188894336477176 25.315498203234213,59.81521423604734 C25.315498203234213,58.24220986005105 26.282435580043717,56.934389640607016 27.874776385694567,56.239153545961784 C28.48147782520777,55.99097955734624 29.258723595974978,55.79187336085594 30.112335823165317,55.79187336085594 C32.539141581218175,55.79187336085594 33.69532527860978,57.39824383549737 33.69532527860978,59.1854018642357 C33.69532527860978,62.59572245647607 30.168664433879755,65.49203066632033 25.44819327037179,66.48581701616298 C25.354015395540927,66.45354131289841 25.12625188265212,66.03831875198104 25.20195041088496,65.92230068348944 z" fill="#ffffff" id="svg_79" class="" fill-opacity="1"/><path d="M35.7184797669975,58.42452396768073 C35.60493197464826,58.45810814540198 35.32017192285471,58.06033191057358 35.339541840373116,57.97811609887934 C36.666269869018706,56.48710945550119 38.050439722029225,55.79209143993205 39.472013553695966,55.79209143993205 C41.08350163413509,55.79209143993205 42.35412369479636,56.91846986805085 42.35412369479636,58.35844600761877 C42.35412369479636,59.649474138202166 41.70957299116672,60.65918026060099 39.87009875510867,62.05008860804371 C39.035633802706656,62.67793826817032 38.27775794945785,63.22531674921159 37.519214168018756,63.738020657151054 C37.48136490390234,63.755248904163906 37.46288555730432,63.85360256749043 37.519214168018756,63.85360256749043 C38.050439722029225,63.88718674521169 40.173560796230326,63.90354267592011 40.970176484515925,63.87126697265552 C41.36848432865874,63.83746471585815 41.80464143691796,63.68917094410193 42.467448844415514,62.72766029752387 C42.562517290166774,62.66201849561415 43.01782167321429,62.89361847444515 43.01782167321429,62.975834286139374 C42.77068824280708,63.55548847044527 42.08851091779111,65.01247477794992 41.6717237270503,65.45997304213188 C41.51965874239433,65.67456285302615 41.159200162367945,65.69200917911509 40.59123855789152,65.70836510982349 C39.263397315595455,65.75808713917705 36.68541714380701,65.65820692231773 35.45286698999228,65.65820692231773 C35.05455914584947,65.65820692231773 34.447857706336265,65.67456285302615 34.1446183079447,65.67456285302615 C34.1446183079447,65.59234704133189 34.16376558273301,65.24429283585704 34.22031683617754,65.1620770241628 C35.680630502881094,64.3176748414569 36.894033381907526,63.489628589459414 38.08806634341554,62.42998235863094 C39.30146922244197,61.338496582690055 39.87009875510867,60.36128424263194 39.87009875510867,59.135897913958274 C39.87009875510867,58.24242793912714 39.244917968997434,57.44687546947036 38.08806634341554,57.44687546947036 C37.34844719403467,57.44687546947036 36.68541714380701,57.64619974503677 35.7184797669975,58.42452396768073 z" fill="#ffffff" id="svg_80" class="" fill-opacity="1"/><path d="M48.24747676045317,56.934389640607016 C47.26183739431555,58.11027201900325 46.71146456551678,60.80878250681387 46.692762576188656,63.02599247364516 C46.692762576188656,64.59899684964147 47.14762167377601,65.22793690514862 47.88701818042678,65.22793690514862 C48.26684667797156,65.22793690514862 48.57008607636312,65.01247477794992 48.72126049009872,64.86330868988928 C49.76411903787113,63.83724663678203 50.40866974150078,60.62537800380363 50.40866974150078,58.3085058991891 C50.40866974150078,56.61948345470121 49.80196830198758,56.38722923864186 49.29033530822559,56.38722923864186 C48.87354811748477,56.38722923864186 48.51286689472829,56.61948345470121 48.24747676045317,56.934389640607016 zM52.9494685773631,59.26783575500605 C52.9494685773631,61.45429657210556 51.982531200553595,64.28518105911618 49.78348895538955,65.3760125978287 C49.13827032356962,65.7081470307474 48.24747676045317,65.85622272342748 47.48960090720435,65.85622272342748 C45.005575967516684,65.85622272342748 44.11433711894001,64.33468500939364 44.13348439372832,62.34776654693667 C44.15196374032634,60.46094638041514 44.91073016449552,57.71249578417485 46.95859799592399,56.503247307133485 C47.830689569712334,55.99097955734624 48.75933239694522,55.79187336085594 49.61205405321518,55.79187336085594 C52.038859811268026,55.79187336085594 52.9494685773631,57.33216587543542 52.9494685773631,59.26783575500605 z" fill="#ffffff" id="svg_81" class="" fill-opacity="1"/><path d="M54.185803657589474,60.4927859255275 C54.26217011401261,60.278414193709324 54.54626223761588,59.81521423604734 54.698104579541734,59.64903798004994 C55.399206536615914,59.15138152836221 56.290445385192555,58.77170585685113 57.3141566581767,58.77170585685113 C58.318943299102614,58.77170585685113 59.39965111099147,59.28506400201891 59.39965111099147,60.3444921537713 C59.39965111099147,60.75862431930808 59.247808769065614,61.1221621391869 58.39464182733548,61.61851011641794 C57.78794038782226,61.96634624281667 56.65023603702866,62.49562416054064 56.1764523073831,62.77738232687743 C55.835363644875116,62.95926027635487 55.62674740677461,63.14135630490844 55.62674740677461,63.4728365005988 C55.62674740677461,64.10264887241041 56.23344884628784,64.46640477136533 56.9924379131871,64.46640477136533 C57.80731030534065,64.46640477136533 58.376162480737435,64.21866694090204 59.15340825150466,63.5888545690904 C59.247808769065614,63.62113027235499 59.34265457208676,63.91924436940016 59.34265457208676,64.03526243789179 C59.19103487289098,64.33446693031752 58.6796245218591,64.86287253173705 58.43271373418196,65.02817647143 C57.59913935270032,65.59191088317965 56.85952020331945,65.88958882207261 55.7790350341607,65.88958882207261 C54.11010512935665,65.88958882207261 53.40855788682229,64.99611884724152 53.40855788682229,64.20078445666084 C53.40855788682229,63.787088449276254 53.59824949286457,63.323452333462015 54.698104579541734,62.77738232687743 C55.36113462976941,62.4295462004787 56.479691705774655,61.91640613438702 57.06791379868986,61.56966040336884 C57.33330393296501,61.404138384599776 57.50384826421899,61.20437795088114 57.50384826421899,60.95642204134174 C57.50384826421899,60.4927859255275 56.9924379131871,60.17897013500223 56.23344884628784,60.17897013500223 C55.53212424648358,60.17897013500223 54.94457008175868,60.37676785703589 54.28064946061062,60.75862431930808 C54.24302283922431,60.724822062510725 54.16732431099147,60.55886388558946 54.185803657589474,60.4927859255275 z" fill="#ffffff" id="svg_82" class="" fill-opacity="1"/><path d="M62.93254595216419,63.68895286502584 C63.15964153686275,63.91968052755239 63.23578535055577,64.2670804957989 63.23578535055577,64.53270081050339 C63.23578535055577,64.88010077874992 63.065463662031874,65.2776589345022 62.72348442860351,65.55810862638229 C62.42002238748185,65.7901447633655 62.00323519674106,65.88980690114873 61.604927352598224,65.88980690114873 C61.245136700762146,65.88980690114873 60.922527384852174,65.75786906010093 60.714133789481764,65.55810862638229 C60.543589458227785,65.36009282527256 60.44874365520664,65.09447251056804 60.44874365520664,64.83081490754856 C60.44874365520664,64.43282059364407 60.5999180689422,64.03548051696788 60.99822591308504,63.737802578074934 C61.32083522899501,63.48941051038331 61.69977315561937,63.389530293523976 62.06045437837588,63.389530293523976 C62.40132039815376,63.389530293523976 62.72348442860351,63.52321276718067 62.93254595216419,63.68895286502584 z" fill="#ffffff" id="svg_83" class="" fill-opacity="1"/></g></g></svg>